<svg width="48" height="48" viewBox="0 0 48 48" fill="none" xmlns="http://www.w3.org/2000/svg">
  <path d="M18 5H31.5C33 5 34.2 5.5 35.2 6.6L42.2 14.2C42.9 15 43.3 16 43.3 17.1V35.4C43.3 40 39.7 43.5 35.1 43.5H29.6C32.2 42.1 34.1 40.3 35.4 38.1C36.4 36.4 36.9 34.4 36.9 32.1V18.8H31.7V14.6H23.3V26.2L18 31.5V9H14V5H18Z" fill="#222E34"/>
  <path d="M9 27.3V29.7C9 37.1 14.6 42.5 22 42.5C29.4 42.5 35 37.1 35 29.7V22.8L29.6 28.2V29.7C29.6 34 26.4 37.2 22 37.2C17.6 37.2 14.4 34 14.4 29.7V27.3H9Z" fill="#222E34"/>
  <path d="M15 27.4L19.2 31.6L29.5 21.3L32.9 24.7L19.2 38.4L11.6 30.8L15 27.4Z" fill="#3B82F6"/>
</svg>
